<mxfile host="app.diagrams.net" modified="2021-08-09T16:01:06.836Z" agent="5.0 (Windows NT 10.0; Win64; x64) AppleWebKit/537.36 (KHTML, like Gecko) Chrome/92.0.4515.131 Safari/537.36" etag="aUIJVcsYYZbADQQKnP3K" version="14.9.5" type="github">
  <diagram id="unZ3KYjHVTo6H54N18ob" name="Page-1">
    <mxGraphModel dx="1185" dy="588" grid="1" gridSize="10" guides="1" tooltips="1" connect="1" arrows="1" fold="1" page="1" pageScale="1" pageWidth="827" pageHeight="1169" math="0" shadow="0">
      <root>
        <mxCell id="0" />
        <mxCell id="1" parent="0" />
        <mxCell id="M9QL1QnZLO9OidXqG47v-1" value="Member" style="rounded=0;whiteSpace=wrap;html=1;" vertex="1" parent="1">
          <mxGeometry x="110" y="100" width="120" height="60" as="geometry" />
        </mxCell>
        <mxCell id="M9QL1QnZLO9OidXqG47v-2" value="Dashboard" style="rounded=0;whiteSpace=wrap;html=1;" vertex="1" parent="1">
          <mxGeometry x="310" y="100" width="120" height="60" as="geometry" />
        </mxCell>
        <mxCell id="M9QL1QnZLO9OidXqG47v-3" value="Team" style="rounded=0;whiteSpace=wrap;html=1;" vertex="1" parent="1">
          <mxGeometry x="110" y="180" width="120" height="60" as="geometry" />
        </mxCell>
        <mxCell id="M9QL1QnZLO9OidXqG47v-4" value="comment" style="rounded=0;whiteSpace=wrap;html=1;" vertex="1" parent="1">
          <mxGeometry x="310" y="180" width="120" height="60" as="geometry" />
        </mxCell>
        <mxCell id="M9QL1QnZLO9OidXqG47v-5" value="Member" style="swimlane;fontStyle=0;childLayout=stackLayout;horizontal=1;startSize=26;horizontalStack=0;resizeParent=1;resizeParentMax=0;resizeLast=0;collapsible=1;marginBottom=0;" vertex="1" parent="1">
          <mxGeometry x="100" y="270" width="140" height="140" as="geometry" />
        </mxCell>
        <mxCell id="M9QL1QnZLO9OidXqG47v-8" value="이름&#xa;나이&#xa;주소&#xa;-우편번호&#xa;-주소&#xa;-상세 주소&#xa;이메일&#xa;" style="text;strokeColor=none;fillColor=none;align=left;verticalAlign=top;spacingLeft=4;spacingRight=4;overflow=hidden;rotatable=0;points=[[0,0.5],[1,0.5]];portConstraint=eastwest;" vertex="1" parent="M9QL1QnZLO9OidXqG47v-5">
          <mxGeometry y="26" width="140" height="114" as="geometry" />
        </mxCell>
        <mxCell id="M9QL1QnZLO9OidXqG47v-9" value="Team" style="swimlane;fontStyle=0;childLayout=stackLayout;horizontal=1;startSize=26;horizontalStack=0;resizeParent=1;resizeParentMax=0;resizeLast=0;collapsible=1;marginBottom=0;" vertex="1" parent="1">
          <mxGeometry x="100" y="480" width="140" height="70" as="geometry" />
        </mxCell>
        <mxCell id="M9QL1QnZLO9OidXqG47v-10" value="팀 이름&#xa;팀 제한 인원" style="text;strokeColor=none;fillColor=none;align=left;verticalAlign=top;spacingLeft=4;spacingRight=4;overflow=hidden;rotatable=0;points=[[0,0.5],[1,0.5]];portConstraint=eastwest;" vertex="1" parent="M9QL1QnZLO9OidXqG47v-9">
          <mxGeometry y="26" width="140" height="44" as="geometry" />
        </mxCell>
        <mxCell id="M9QL1QnZLO9OidXqG47v-11" style="edgeStyle=orthogonalEdgeStyle;rounded=0;orthogonalLoop=1;jettySize=auto;html=1;" edge="1" parent="1" source="M9QL1QnZLO9OidXqG47v-8" target="M9QL1QnZLO9OidXqG47v-9">
          <mxGeometry relative="1" as="geometry" />
        </mxCell>
        <mxCell id="M9QL1QnZLO9OidXqG47v-18" style="edgeStyle=orthogonalEdgeStyle;rounded=0;orthogonalLoop=1;jettySize=auto;html=1;entryX=0.5;entryY=0;entryDx=0;entryDy=0;" edge="1" parent="1" source="M9QL1QnZLO9OidXqG47v-13" target="M9QL1QnZLO9OidXqG47v-16">
          <mxGeometry relative="1" as="geometry" />
        </mxCell>
        <mxCell id="M9QL1QnZLO9OidXqG47v-13" value="Dashboard" style="swimlane;fontStyle=0;childLayout=stackLayout;horizontal=1;startSize=26;horizontalStack=0;resizeParent=1;resizeParentMax=0;resizeLast=0;collapsible=1;marginBottom=0;" vertex="1" parent="1">
          <mxGeometry x="310" y="270" width="140" height="80" as="geometry" />
        </mxCell>
        <mxCell id="M9QL1QnZLO9OidXqG47v-14" value="대제목&#xa;소제목&#xa;내용" style="text;strokeColor=none;fillColor=none;align=left;verticalAlign=top;spacingLeft=4;spacingRight=4;overflow=hidden;rotatable=0;points=[[0,0.5],[1,0.5]];portConstraint=eastwest;" vertex="1" parent="M9QL1QnZLO9OidXqG47v-13">
          <mxGeometry y="26" width="140" height="54" as="geometry" />
        </mxCell>
        <mxCell id="M9QL1QnZLO9OidXqG47v-15" style="edgeStyle=orthogonalEdgeStyle;rounded=0;orthogonalLoop=1;jettySize=auto;html=1;entryX=0;entryY=0.5;entryDx=0;entryDy=0;" edge="1" parent="1" source="M9QL1QnZLO9OidXqG47v-8" target="M9QL1QnZLO9OidXqG47v-14">
          <mxGeometry relative="1" as="geometry" />
        </mxCell>
        <mxCell id="M9QL1QnZLO9OidXqG47v-16" value="Comment" style="swimlane;fontStyle=0;childLayout=stackLayout;horizontal=1;startSize=26;horizontalStack=0;resizeParent=1;resizeParentMax=0;resizeLast=0;collapsible=1;marginBottom=0;" vertex="1" parent="1">
          <mxGeometry x="310" y="410" width="140" height="50" as="geometry" />
        </mxCell>
        <mxCell id="M9QL1QnZLO9OidXqG47v-17" value="댓글 내용" style="text;strokeColor=none;fillColor=none;align=left;verticalAlign=top;spacingLeft=4;spacingRight=4;overflow=hidden;rotatable=0;points=[[0,0.5],[1,0.5]];portConstraint=eastwest;" vertex="1" parent="M9QL1QnZLO9OidXqG47v-16">
          <mxGeometry y="26" width="140" height="24" as="geometry" />
        </mxCell>
        <mxCell id="M9QL1QnZLO9OidXqG47v-19" style="edgeStyle=orthogonalEdgeStyle;rounded=0;orthogonalLoop=1;jettySize=auto;html=1;entryX=-0.012;entryY=0.414;entryDx=0;entryDy=0;entryPerimeter=0;" edge="1" parent="1" source="M9QL1QnZLO9OidXqG47v-8" target="M9QL1QnZLO9OidXqG47v-17">
          <mxGeometry relative="1" as="geometry" />
        </mxCell>
      </root>
    </mxGraphModel>
  </diagram>
</mxfile>
